<svg height="480pt" viewBox="0 -115 480.214 480" width="480pt" xmlns="http://www.w3.org/2000/svg" xmlns:xlink="http://www.w3.org/1999/xlink"><linearGradient id="a"><stop offset="0" stop-color="#00efd1"/><stop offset="1" stop-color="#00acea"/></linearGradient><linearGradient id="b" gradientUnits="userSpaceOnUse" x1="240.107" x2="240.107" xlink:href="#a" y1="-119.09206" y2="363.11094"/><linearGradient id="c" gradientUnits="userSpaceOnUse" x1="49.447" x2="49.447" xlink:href="#a" y1="-119.09206" y2="363.11094"/><linearGradient id="d" gradientUnits="userSpaceOnUse" x1="213.555" x2="213.555" xlink:href="#a" y1="-119.09206" y2="363.11094"/><linearGradient id="e" gradientUnits="userSpaceOnUse" x1="325.107" x2="325.107" xlink:href="#a" y1="-119.09206" y2="363.11094"/><linearGradient id="f" gradientUnits="userSpaceOnUse" x1="270.744" x2="270.744" xlink:href="#a" y1="-119.09206" y2="363.11094"/><path d="m430.765625 38.90625h-.378906l-87.3125 6.902344c-12.652344 1.003906-25.347657 1.347656-38.035157 1.035156l-69.507812-1.875-17.476562-32.449219c-.535157-2.660156-2.292969-6.394531-7.679688-8.769531-2.40625-.988281-4.914062-1.703125-7.480469-2.128906-6.355469-1.066406-12.796875-1.5703128-19.246093-1.507813-6.445313-.0624998-12.886719.445313-19.246094 1.511719-3.789063.707031-15.296875 2.855469-15.375 12.976562l-5.164063 27.875-88.492187-2.457031c-1.945313-.441406-3.929688-.664062-5.925782-.667969-14.84375 0-28.03125 12.09375-37.128906 34.046876-7.941406 19.164062-12.316406 44.421874-12.316406 71.128906 0 26.703125 4.375 51.964844 12.316406 71.125 9.097656 21.957031 22.285156 34.046875 37.128906 34.046875 1.976563 0 3.945313-.21875 5.871094-.652344l298.464844-5.628906c20.789062-.351563 41.574219 1.0625 62.125 4.230469l14.101562 2.257812h.757813c14.847656 0 28.03125-12.191406 37.132813-34.148438 7.941406-19.160156 12.316406-44.472656 12.316406-71.179687 0-26.703125-4.375-52.214844-12.316406-71.375-9.101563-21.957031-22.285157-34.296875-37.132813-34.296875zm-263.914063-10.726562c5.566407.769531 11.179688 1.144531 16.800782 1.113281 6.445312.058593 12.886718-.445313 19.246094-1.515625l.582031-.109375 8.992187 16.714843-48.375-1.34375zm-146.851562 116.347656c0-51.996094 17.441406-85.175782 29.445312-85.175782.445313.007813.890626.054688 1.324219.144532.351563.109375.703125.203125 1.0625.273437 11.800781 3.949219 27.0625 36.117188 27.0625 84.757813s-15.253906 80.792968-27.054687 84.753906c-.390625.078125-.777344.175781-1.160156.300781-.40625.074219-.820313.113281-1.234376.117188-12.003906 0-29.445312-33.179688-29.445312-85.171875zm411.355469 85.148437-12.429688-1.902343c-21.675781-3.308594-43.597656-4.765626-65.523437-4.355469l-273.332032 5.160156c2.503907-4.132813 4.679688-8.453125 6.507813-12.925781 7.941406-19.160156 12.316406-44.421875 12.316406-71.125 0-26.707032-4.375-51.964844-12.316406-71.128906-1.792969-4.382813-3.921875-8.621094-6.363281-12.679688l224.269531 6.226562c13.378906.371094 26.769531.042969 40.113281-.972656l86.464844-6.613281c11.996094.539063 29.152344 33.601563 29.152344 85.167969 0 51.148437-16.878906 84.089844-28.859375 85.148437zm0 0" fill="url(#b)"/><path d="m70.050781 175.773438c3.523438-8.507813 5.46875-19.605469 5.46875-31.246094s-1.945312-22.738282-5.46875-31.246094c-6.324219-15.25-15.621093-17.527344-20.601562-17.527344s-14.28125 2.277344-20.601563 17.527344c-3.523437 8.507812-5.464844 19.605469-5.464844 31.246094s1.941407 22.738281 5.464844 31.246094c6.324219 15.25 15.621094 17.527343 20.601563 17.527343s14.277343-2.277343 20.601562-17.527343zm-20.605469-58.925782c2.449219 3.554688 6.074219 13.15625 6.074219 27.679688 0 14.523437-3.625 24.125-6.074219 27.679687-2.445312-3.550781-6.070312-13.152343-6.070312-27.679687 0-14.523438 3.625-24.125 6.070312-27.679688zm0 0" fill="url(#c)"/><path d="m288.113281 114.484375c5.453125-.007813 9.894531-4.378906 9.988281-9.832031.089844-5.453125-4.203124-9.972656-9.652343-10.164063l-149.101563-5.105469c-3.582031-.144531-6.96875 1.644532-8.871094 4.683594-1.90625 3.039063-2.035156 6.863282-.34375 10.027344 1.691407 3.160156 4.949219 5.175781 8.53125 5.277344l149.101563 5.105468c.113281.003907.230469.007813.347656.007813zm0 0" fill="url(#d)"/><path d="m402.105469 134.90625h-154c-5.519531 0-10 4.480469-10 10 0 5.523438 4.480469 10 10 10h154c5.523437 0 10-4.476562 10-10 0-5.519531-4.476563-10-10-10zm0 0" fill="url(#e)"/><path d="m383.085938 176.183594h-.1875l-224.671876 4.085937c-5.523437.046875-9.960937 4.566407-9.914062 10.085938.050781 5.523437 4.566406 9.960937 10.089844 9.914062h.1875l224.671875-4.085937c5.523437-.050782 9.960937-4.566406 9.914062-10.089844-.050781-5.523438-4.566406-9.960938-10.089843-9.910156zm0 0" fill="url(#f)"/></svg>